<?xml version="1.0" encoding="UTF-8"?>
<svg width="400" height="400" viewBox="0 0 400 400" fill="none" xmlns="http://www.w3.org/2000/svg">
  <rect width="400" height="400" fill="#F3F4F6"/>
  <path d="M159.379 172.372C159.379 167.849 162.195 165.033 166.718 165.033H233.282C237.805 165.033 240.621 167.849 240.621 172.372V227.628C240.621 232.151 237.805 234.967 233.282 234.967H166.718C162.195 234.967 159.379 232.151 159.379 227.628V172.372ZM169.037 175.935V224.065H230.963V175.935H169.037ZM186.759 206.343L198.667 191.932L212.825 210.866H187.506L186.759 206.343ZM219.055 201.82C215.642 201.82 212.825 199.004 212.825 195.591C212.825 192.178 215.642 189.362 219.055 189.362C222.468 189.362 225.284 192.178 225.284 195.591C225.284 199.004 222.468 201.82 219.055 201.82Z" fill="#9CA3AF"/>
</svg> 